<?xml version="1.0" encoding="UTF-8"?>
<svg version="1.1" xmlns="http://www.w3.org/2000/svg" width="89" height="61">
<path d="M0 0 C4.57546182 -0.01794299 9.14085862 -0.01440515 13.71459961 0.04272461 C15.26727905 0.05580218 16.82011442 0.05665557 18.37280273 0.04467773 C32.92219776 -0.05340807 32.92219776 -0.05340807 37.53125 4.01171875 C40.66289134 8.0754394 40.83207673 11.78093482 40.4375 16.75 C40.40591797 17.50410156 40.37433594 18.25820313 40.34179688 19.03515625 C40.2552131 21.02481606 40.12987564 23.0126965 40 25 C39.7226499 28.18490007 39.7226499 28.18490007 42 31 C42 30.01 42 29.02 42 28 C42.66 28 43.32 28 44 28 C43.505 26.515 43.505 26.515 43 25 C43.4375 22.8125 43.4375 22.8125 44 21 C44.66 21 45.32 21 46 21 C46.33 19.02 46.66 17.04 47 15 C46.34 15 45.68 15 45 15 C44.505 12.525 44.505 12.525 44 10 C44.66 10 45.32 10 46 10 C46 6.7 46 3.4 46 0 C54.25 0.33 62.5 0.66 71 1 C71.125 14.625 71.125 14.625 70 18 C70.66 18.33 71.32 18.66 72 19 C73.1875 21.9375 73.1875 21.9375 74 25 C73.67 25.66 73.34 26.32 73 27 C73.66 27 74.32 27 75 27 C75.2165625 28.36125 75.2165625 28.36125 75.4375 29.75 C76.05374277 33.31051379 76.85829166 36.57487497 78 40 C79.98 40.495 79.98 40.495 82 41 C82 45.95 82 50.9 82 56 C67.15 56 52.3 56 37 56 C36.67 55.01 36.34 54.02 36 53 C35.66444092 53.4844458 35.32888184 53.9688916 34.9831543 54.46801758 C31.99953398 56.77285784 28.89391642 56.47991601 25.26953125 56.51171875 C24.14390022 56.53864555 24.14390022 56.53864555 22.99552917 56.56611633 C20.6012431 56.62025187 18.20715669 56.65412416 15.8125 56.6875 C14.18812323 56.72067036 12.56377283 56.75515976 10.93945312 56.79101562 C6.95960622 56.87846244 2.9806709 56.93849789 -1 57 C-1 51.39 -1 45.78 -1 40 C0.32 40.33 1.64 40.66 3 41 C3 32.42 3 23.84 3 15 C1.68 15.33 0.36 15.66 -1 16 C-0.67 10.72 -0.34 5.44 0 0 Z M68 3 C68 5.97 68 8.94 68 12 C68.33 12 68.66 12 69 12 C69 9.03 69 6.06 69 3 C68.67 3 68.34 3 68 3 Z M49 5 C50 7 50 7 50 7 Z M37 9 C37 13.95 37 18.9 37 24 C37.33 24 37.66 24 38 24 C38 19.05 38 14.1 38 9 C37.67 9 37.34 9 37 9 Z M48 9 C49 12 49 12 49 12 Z M50 12 C51 15 51 15 51 15 Z M21 15 C21 16.65 21 18.3 21 20 C21.99 20 22.98 20 24 20 C24 18.35 24 16.7 24 15 C23.01 15 22.02 15 21 15 Z M67 17 C68 19 68 19 68 19 Z M48 20 C49 22 49 22 49 22 Z M58 20 C59 24 59 24 59 24 Z M47 24 C48 26 48 26 48 26 Z M33 26 C33.66 26.66 34.32 27.32 35 28 C35 27.34 35 26.68 35 26 C34.34 26 33.68 26 33 26 Z M46 27 C47 29 47 29 47 29 Z M70 27 C71 29 71 29 71 29 Z M60 28 C61 30 61 30 61 30 Z M37 30 C37 35.61 37 41.22 37 47 C37.33 47 37.66 47 38 47 C38 41.39 38 35.78 38 30 C37.67 30 37.34 30 37 30 Z M71 30 C72 32 72 32 72 32 Z M45 31 C46 33 46 33 46 33 Z M55 31 C55 31.66 55 32.32 55 33 C57.31 33 59.62 33 62 33 C62 32.67 62 32.34 62 32 C59.69 31.67 57.38 31.34 55 31 Z M41 33 C42 35 42 35 42 35 Z M72 33 C73 35 73 35 73 35 Z M21 34 C21 36.31 21 38.62 21 41 C21.99 41 22.98 41 24 41 C24 38.69 24 36.38 24 34 C23.01 34 22.02 34 21 34 Z M40 36 C41 39 41 39 41 39 Z M73 36 C74 38 74 38 74 38 Z M43 38 C44 40 44 40 44 40 Z M74 39 C75 41 75 41 75 41 Z M53 40 C54 42 54 42 54 42 Z M42 42 C41.67 42.66 41.34 43.32 41 44 C41.66 44 42.32 44 43 44 C42.67 43.34 42.34 42.68 42 42 Z M75 42 C75 42.66 75 43.32 75 44 C75.99 43.67 76.98 43.34 78 43 C77.01 42.67 76.02 42.34 75 42 Z M20 43 C20 43.33 20 43.66 20 44 C21.98 44 23.96 44 26 44 C26 43.67 26 43.34 26 43 C24.02 43 22.04 43 20 43 Z M55 43 C55 46.3 55 49.6 55 53 C55.33 53 55.66 53 56 53 C56 49.7 56 46.4 56 43 C55.67 43 55.34 43 55 43 Z " fill="#000000" transform="translate(3,2)"/>
<path d="" fill="#000000" transform="translate(0,0)"/>
<path d="" fill="#000000" transform="translate(0,0)"/>
<path d="" fill="#000000" transform="translate(0,0)"/>
<path d="" fill="#000000" transform="translate(0,0)"/>
<path d="" fill="#000000" transform="translate(0,0)"/>
<path d="" fill="#000000" transform="translate(0,0)"/>
<path d="" fill="#000000" transform="translate(0,0)"/>
<path d="" fill="#000000" transform="translate(0,0)"/>
<path d="" fill="#000000" transform="translate(0,0)"/>
<path d="" fill="#000000" transform="translate(0,0)"/>
<path d="" fill="#000000" transform="translate(0,0)"/>
<path d="" fill="#000000" transform="translate(0,0)"/>
<path d="" fill="#000000" transform="translate(0,0)"/>
<path d="" fill="#000000" transform="translate(0,0)"/>
<path d="" fill="#000000" transform="translate(0,0)"/>
<path d="" fill="#000000" transform="translate(0,0)"/>
<path d="" fill="#000000" transform="translate(0,0)"/>
<path d="" fill="#000000" transform="translate(0,0)"/>
<path d="" fill="#000000" transform="translate(0,0)"/>
<path d="" fill="#000000" transform="translate(0,0)"/>
<path d="" fill="#000000" transform="translate(0,0)"/>
<path d="" fill="#000000" transform="translate(0,0)"/>
<path d="" fill="#000000" transform="translate(0,0)"/>
<path d="" fill="#000000" transform="translate(0,0)"/>
<path d="" fill="#000000" transform="translate(0,0)"/>
<path d="" fill="#000000" transform="translate(0,0)"/>
<path d="" fill="#000000" transform="translate(0,0)"/>
<path d="" fill="#000000" transform="translate(0,0)"/>
</svg>
